<svg width="16" height="16" viewBox="0 0 16 16" fill="none" xmlns="http://www.w3.org/2000/svg">
<path d="M6.10664 7.24666C6.03998 7.24 5.95998 7.24 5.88664 7.24666C4.29998 7.19333 3.03998 5.89333 3.03998 4.29333C3.03998 2.65999 4.35998 1.33333 5.99998 1.33333C7.63331 1.33333 8.95998 2.65999 8.95998 4.29333C8.95331 5.89333 7.69331 7.19333 6.10664 7.24666Z" stroke="white" stroke-width="1.5" stroke-linecap="round" stroke-linejoin="round"/>
<path d="M10.94 2.66667C12.2333 2.66667 13.2733 3.71334 13.2733 5C13.2733 6.26 12.2733 7.28667 11.0267 7.33334C10.9733 7.32667 10.9133 7.32667 10.8533 7.33334" stroke="white" stroke-width="1.5" stroke-linecap="round" stroke-linejoin="round"/>
<path d="M2.77329 9.70667C1.15996 10.7867 1.15996 12.5467 2.77329 13.62C4.60663 14.8467 7.61329 14.8467 9.44663 13.62C11.06 12.54 11.06 10.78 9.44663 9.70667C7.61996 8.48667 4.61329 8.48667 2.77329 9.70667Z" stroke="white" stroke-width="1.5" stroke-linecap="round" stroke-linejoin="round"/>
<path d="M12.2267 13.3333C12.7067 13.2333 13.16 13.04 13.5334 12.7533C14.5734 11.9733 14.5734 10.6867 13.5334 9.90666C13.1667 9.62666 12.72 9.43999 12.2467 9.33333" stroke="white" stroke-width="1.5" stroke-linecap="round" stroke-linejoin="round"/>
</svg>
