<svg width="19" height="20" viewBox="0 0 19 20" fill="none" xmlns="http://www.w3.org/2000/svg">
<path fill-rule="evenodd" clip-rule="evenodd" d="M1.5 8.75001C1.5 5.2522 4.33553 2.41667 7.83333 2.41667C11.3311 2.41667 14.1667 5.2522 14.1667 8.75001C14.1667 12.2478 11.3311 15.0833 7.83333 15.0833C4.33553 15.0833 1.5 12.2478 1.5 8.75001ZM7.83333 0.916672C3.5071 0.916672 0 4.42377 0 8.75001C0 13.0762 3.5071 16.5833 7.83333 16.5833C9.72636 16.5833 11.4626 15.9118 12.8167 14.794L16.8863 18.8637C17.1792 19.1566 17.6541 19.1566 17.947 18.8637C18.2399 18.5708 18.2399 18.0959 17.947 17.803L13.8774 13.7334C14.9952 12.3792 15.6667 10.643 15.6667 8.75001C15.6667 4.42377 12.1596 0.916672 7.83333 0.916672Z" fill="white" fill-opacity="0.65"/>
</svg>
